<?xml version="1.0" encoding="utf-8"?>
<!-- Generator: Adobe Illustrator 16.0.0, SVG Export Plug-In . SVG Version: 6.00 Build 0)  -->
<!DOCTYPE svg PUBLIC "-//W3C//DTD SVG 1.1//EN" "http://www.w3.org/Graphics/SVG/1.1/DTD/svg11.dtd">
<svg version="1.1" id="Layer_1" xmlns="http://www.w3.org/2000/svg" xmlns:xlink="http://www.w3.org/1999/xlink" x="0px" y="0px"
	 width="2080px" height="400px" viewBox="0 0 2080 400" enable-background="new 0 0 2080 400" xml:space="preserve">
<path opacity="0.1" fill="#FFFFFF" d="M-0.25,389.687c0,0,35.6-184.623,100.006-192.437s142.435,92.062,157.689,109.011
	c0,0,15.285,21.971,54.269,27.056s91.542-157.658,157.643-123.76c0,0,105.092,108.46,159.33,101.68s123.733-33.907,181.36-106.788
	c0,0,69.494-125.427,133.9-79.665s106.781,232.201,227.12,171.184c0,0,76.271-33.899,171.187-86.442
	c94.916-52.542,167.798,42.373,186.441,71.187s45.763,55.933,66.102,47.458s106.779-81.355,164.406-159.322
	c57.627-77.966,69.492,10.169,110.17,40.678c0,0,55.932,105.086,77.966,93.221S2054.855,265.83,2067.178,197
	C2079.5,128.169,2079,170.542,2079,170.542V398H0L-0.25,389.687z"/>
<path opacity="0.1" fill="#FFFFFF" d="M0.75,385.981c0,0,35.6-212.271,100.006-221.244
	c64.407-8.974,142.435,105.612,157.689,125.078c0,0,15.285,25.175,54.269,31.015s91.542-181.097,157.643-142.165
	c0,0,105.092,124.549,159.33,116.762c54.237-7.786,123.733-38.948,181.36-122.65c0,0,69.494-144.055,133.9-91.497
	s106.781,266.676,227.12,196.6c0,0,76.271-38.934,171.187-99.277s167.798,48.662,186.441,81.755
	c18.644,33.092,45.763,64.237,66.102,54.504c20.339-9.732,106.779-93.435,164.406-182.979
	c57.627-89.542,69.492,11.679,110.17,46.718c0,0,55.932,120.688,77.966,107.062c22.034-13.628,107.517-42.397,119.839-121.448
	S2080,133.829,2080,133.829V396H1L0.75,385.981z"/>
<path opacity="0.05" fill="#FFFFFF" d="M6.955,387.602c0,0,102.522-227.78,138.459-200.25
	c39.827,30.509,96.935,204.959,190.441,149.027c0,0,116-225.486,235.48-194.978s225.1,205.054,225.1,205.054
	s96.123,16.725,155.84-55.948s155.842-244.075,200.863-188.143s155.844,254.234,235.497,189.827s143.722-320.341,258.008-188.138
	c114.285,132.203,117.748,245.762,187.013,203.389c69.264-42.373,160.789-205.085,188.494-164.407s56.85,83.851,56.85,83.851V399
	H7.094l-7.203-9.953"/>
</svg>
